<svg width="1654" height="999" xmlns="http://www.w3.org/2000/svg" xmlns:xlink="http://www.w3.org/1999/xlink" xml:space="preserve" overflow="hidden"><defs><clipPath id="clip0"><rect x="2264" y="646" width="1654" height="999"/></clipPath><clipPath id="clip1"><rect x="2266" y="650" width="1650" height="990"/></clipPath><clipPath id="clip2"><rect x="2266" y="650" width="1650" height="990"/></clipPath><clipPath id="clip3"><rect x="2266" y="650" width="1650" height="990"/></clipPath><clipPath id="clip4"><rect x="2266" y="650" width="1650" height="990"/></clipPath><clipPath id="clip5"><rect x="2266" y="650" width="1650" height="990"/></clipPath><clipPath id="clip6"><rect x="2266" y="650" width="1650" height="990"/></clipPath><clipPath id="clip7"><rect x="2266" y="650" width="1650" height="990"/></clipPath></defs><g clip-path="url(#clip0)" transform="translate(-2264 -646)"><rect x="2266" y="651" width="1650" height="990" fill="#FFFFFF" fill-opacity="1"/><g clip-path="url(#clip1)"><path d="M3091.46 820.829C3275.02 820.829 3423.83 969.637 3423.83 1153.2 3423.83 1309.11 3315.45 1444.07 3163.22 1477.73L3091.46 1153.2Z" stroke="#FFFFFF" stroke-width="6.875" stroke-linecap="butt" stroke-linejoin="round" stroke-miterlimit="10" stroke-opacity="1" fill="#4472C4" fill-rule="evenodd" fill-opacity="1"/></g><g clip-path="url(#clip2)"><path d="M3163.22 1477.73C2983.98 1517.36 2806.56 1404.19 2766.93 1224.96 2727.29 1045.73 2840.46 868.3 3019.7 828.668 3043.26 823.458 3067.32 820.829 3091.46 820.829L3091.46 1153.2Z" stroke="#FFFFFF" stroke-width="6.875" stroke-linecap="butt" stroke-linejoin="round" stroke-miterlimit="10" stroke-opacity="1" fill="#ED7D31" fill-rule="evenodd" fill-opacity="1"/></g><g clip-path="url(#clip3)"><text fill="#595959" fill-opacity="1" font-family="Calibri,Calibri_MSFontService,sans-serif" font-style="normal" font-variant="normal" font-weight="400" font-stretch="normal" font-size="64" text-anchor="start" direction="ltr" writing-mode="lr-tb" unicode-bidi="normal" text-decoration="none" transform="matrix(1 0 0 1 2992.02 746)">Percent</text></g><g clip-path="url(#clip4)"><rect x="2647.5" y="1563.5" width="23" height="22" stroke="#FFFFFF" stroke-width="6.875" stroke-linecap="butt" stroke-linejoin="round" stroke-miterlimit="10" stroke-opacity="1" fill="#4472C4" fill-opacity="1"/></g><g clip-path="url(#clip5)"><text fill="#595959" fill-opacity="1" font-family="Calibri,Calibri_MSFontService,sans-serif" font-style="normal" font-variant="normal" font-weight="400" font-stretch="normal" font-size="41" text-anchor="start" direction="ltr" writing-mode="lr-tb" unicode-bidi="normal" text-decoration="none" transform="matrix(1 0 0 1 2680.04 1585)">Ca. Chx. allophototropha</text></g><g clip-path="url(#clip6)"><rect x="3167.5" y="1563.5" width="22" height="22" stroke="#FFFFFF" stroke-width="6.875" stroke-linecap="butt" stroke-linejoin="round" stroke-miterlimit="10" stroke-opacity="1" fill="#ED7D31" fill-opacity="1"/></g><g clip-path="url(#clip7)"><text fill="#595959" fill-opacity="1" font-family="Calibri,Calibri_MSFontService,sans-serif" font-style="normal" font-variant="normal" font-weight="400" font-stretch="normal" font-size="41" text-anchor="start" direction="ltr" writing-mode="lr-tb" unicode-bidi="normal" text-decoration="none" transform="matrix(1 0 0 1 3199.6 1585)">Geothrix sp. L227-G1</text></g><rect x="2266.5" y="651.5" width="1650" height="990" stroke="#D9D9D9" stroke-width="3.4375" stroke-linecap="butt" stroke-linejoin="round" stroke-miterlimit="10" stroke-opacity="1" fill="none"/></g></svg>